<mxfile host="Electron" modified="2023-05-09T13:53:01.116Z" agent="Mozilla/5.0 (Windows NT 10.0; Win64; x64) AppleWebKit/537.36 (KHTML, like Gecko) draw.io/21.2.1 Chrome/112.0.5615.87 Electron/24.1.2 Safari/537.36" etag="hp9E8CwD6T5nDUfoQkAe" version="21.2.1" type="device">
  <diagram id="Epos6ljTCpA-LMEy5TUw" name="Page-1">
    <mxGraphModel dx="1112" dy="868" grid="1" gridSize="10" guides="1" tooltips="1" connect="1" arrows="1" fold="1" page="1" pageScale="1" pageWidth="827" pageHeight="1169" math="0" shadow="0">
      <root>
        <mxCell id="0" />
        <mxCell id="1" parent="0" />
        <mxCell id="Rp1BgPSZoUE1h_AgtUlV-13" value="" style="rounded=0;whiteSpace=wrap;html=1;" parent="1" vertex="1">
          <mxGeometry x="474" y="320" width="235.5" height="640" as="geometry" />
        </mxCell>
        <mxCell id="Rp1BgPSZoUE1h_AgtUlV-12" value="" style="rounded=0;whiteSpace=wrap;html=1;" parent="1" vertex="1">
          <mxGeometry x="84.5" y="320" width="235.5" height="640" as="geometry" />
        </mxCell>
        <mxCell id="Rp1BgPSZoUE1h_AgtUlV-10" style="edgeStyle=orthogonalEdgeStyle;rounded=0;orthogonalLoop=1;jettySize=auto;html=1;endArrow=none;endFill=0;" parent="1" source="Rp1BgPSZoUE1h_AgtUlV-1" target="Rp1BgPSZoUE1h_AgtUlV-2" edge="1">
          <mxGeometry relative="1" as="geometry" />
        </mxCell>
        <mxCell id="Rp1BgPSZoUE1h_AgtUlV-1" value="Home Router" style="sketch=0;aspect=fixed;pointerEvents=1;shadow=0;dashed=0;html=1;strokeColor=none;labelPosition=center;verticalLabelPosition=bottom;verticalAlign=top;align=center;fillColor=#00188D;shape=mxgraph.mscae.enterprise.router" parent="1" vertex="1">
          <mxGeometry x="760" y="140" width="50" height="39" as="geometry" />
        </mxCell>
        <mxCell id="cgQug0jPNl_zAg8uSvQo-6" style="edgeStyle=orthogonalEdgeStyle;rounded=0;orthogonalLoop=1;jettySize=auto;html=1;" parent="1" source="Rp1BgPSZoUE1h_AgtUlV-2" target="Rp1BgPSZoUE1h_AgtUlV-12" edge="1">
          <mxGeometry relative="1" as="geometry">
            <Array as="points">
              <mxPoint x="592" y="240" />
              <mxPoint x="202" y="240" />
            </Array>
          </mxGeometry>
        </mxCell>
        <mxCell id="Rp1BgPSZoUE1h_AgtUlV-2" value="Room Switch" style="sketch=0;pointerEvents=1;shadow=0;dashed=0;html=1;strokeColor=none;fillColor=#505050;labelPosition=center;verticalLabelPosition=bottom;verticalAlign=top;outlineConnect=0;align=center;shape=mxgraph.office.devices.switch;" parent="1" vertex="1">
          <mxGeometry x="564.5" y="150.5" width="55" height="18" as="geometry" />
        </mxCell>
        <mxCell id="Rp1BgPSZoUE1h_AgtUlV-19" style="edgeStyle=orthogonalEdgeStyle;rounded=0;orthogonalLoop=1;jettySize=auto;html=1;entryX=0.5;entryY=0;entryDx=0;entryDy=0;" parent="1" source="Rp1BgPSZoUE1h_AgtUlV-2" target="Rp1BgPSZoUE1h_AgtUlV-13" edge="1">
          <mxGeometry relative="1" as="geometry">
            <mxPoint x="591" y="210" as="sourcePoint" />
          </mxGeometry>
        </mxCell>
        <mxCell id="Rp1BgPSZoUE1h_AgtUlV-4" value="Nidavellir&lt;br&gt;Proxmox Host&lt;br&gt;192.168.1.60" style="sketch=0;outlineConnect=0;fontColor=#232F3E;gradientColor=none;fillColor=#232F3D;strokeColor=none;dashed=0;verticalLabelPosition=bottom;verticalAlign=top;align=center;html=1;fontSize=12;fontStyle=0;aspect=fixed;pointerEvents=1;shape=mxgraph.aws4.traditional_server;" parent="1" vertex="1">
          <mxGeometry x="511.5" y="350" width="45" height="78" as="geometry" />
        </mxCell>
        <mxCell id="Rp1BgPSZoUE1h_AgtUlV-5" value="Jotunheim&lt;br&gt;Proxmox Host&lt;br&gt;192.168.1.11" style="sketch=0;outlineConnect=0;fontColor=#232F3E;gradientColor=none;fillColor=#232F3D;strokeColor=none;dashed=0;verticalLabelPosition=bottom;verticalAlign=top;align=center;html=1;fontSize=12;fontStyle=0;aspect=fixed;pointerEvents=1;shape=mxgraph.aws4.traditional_server;" parent="1" vertex="1">
          <mxGeometry x="122" y="350" width="45" height="78" as="geometry" />
        </mxCell>
        <mxCell id="cgQug0jPNl_zAg8uSvQo-2" value="Svol&lt;br&gt;Wiki js&lt;br&gt;192.168.1.12" style="sketch=0;outlineConnect=0;fontColor=#232F3E;gradientColor=none;fillColor=#232F3D;strokeColor=none;dashed=0;verticalLabelPosition=bottom;verticalAlign=top;align=center;html=1;fontSize=12;fontStyle=0;aspect=fixed;pointerEvents=1;shape=mxgraph.aws4.traditional_server;" parent="1" vertex="1">
          <mxGeometry x="122" y="507" width="19.04" height="33" as="geometry" />
        </mxCell>
        <mxCell id="ksoclWqwW7HQtdI0khN0-1" value="Aegir&lt;br&gt;Prometheus&lt;br&gt;Grafana&lt;br&gt;192.168.1.13" style="sketch=0;outlineConnect=0;fontColor=#232F3E;gradientColor=none;fillColor=#232F3D;strokeColor=none;dashed=0;verticalLabelPosition=bottom;verticalAlign=top;align=center;html=1;fontSize=12;fontStyle=0;aspect=fixed;pointerEvents=1;shape=mxgraph.aws4.traditional_server;" vertex="1" parent="1">
          <mxGeometry x="220" y="507" width="19.04" height="33" as="geometry" />
        </mxCell>
      </root>
    </mxGraphModel>
  </diagram>
</mxfile>
